<?xml version="1.0" standalone="no"?>
<!DOCTYPE svg PUBLIC "-//W3C//DTD SVG 20010904//EN"
 "http://www.w3.org/TR/2001/REC-SVG-20010904/DTD/svg10.dtd">
<svg version="1.0" xmlns="http://www.w3.org/2000/svg"
 width="1131.000000pt" height="1280.000000pt" viewBox="0 0 1131.000000 1280.000000"
 preserveAspectRatio="xMidYMid meet">
<metadata>
Created by potrace 1.15, written by Peter Selinger 2001-2017
</metadata>
<g transform="translate(0.000000,1280.000000) scale(0.100000,-0.100000)"
fill="#ffffff" stroke="none">
<path d="M5155 12790 c-166 -6 -317 -17 -485 -35 -23 -2 -25 -6 -22 -41 2 -22
59 -509 128 -1083 68 -573 121 -1047 118 -1052 -3 -5 -16 -9 -28 -9 -13 0 -75
-9 -137 -20 -62 -11 -114 -18 -116 -16 -4 3 -123 575 -123 589 0 6 -18 7 -44
4 -41 -6 -45 -4 -48 16 -3 19 -8 22 -46 19 -40 -3 -43 -2 -48 27 -8 38 -12 38
-146 2 l-106 -28 -27 86 c-14 47 -29 94 -31 104 -6 19 -16 21 -61 8 l-32 -9
-22 66 c-12 37 -25 71 -29 75 -7 7 -80 -16 -80 -26 0 -2 11 -37 25 -77 16 -46
22 -77 16 -83 -6 -6 3 -46 25 -106 19 -53 34 -97 34 -98 0 0 -13 -6 -30 -12
-34 -11 -36 -23 -15 -74 22 -54 19 -64 -27 -79 -24 -8 -44 -21 -46 -29 -1 -9
45 -136 103 -283 58 -148 107 -273 108 -279 1 -5 -42 -29 -97 -53 -54 -23
-100 -45 -102 -47 -2 -2 41 -100 96 -217 55 -117 100 -214 100 -215 0 -1 -51
-28 -112 -60 -96 -49 -213 -118 -319 -188 l-25 -17 -389 563 c-213 309 -389
563 -390 565 -1 1 -65 13 -141 25 l-139 24 -79 -61 c-164 -126 -409 -350 -557
-510 l-92 -100 7 -90 c4 -50 9 -114 13 -143 l6 -52 654 -533 c361 -293 657
-538 660 -544 2 -6 -19 -42 -48 -80 -29 -38 -82 -114 -117 -169 -36 -55 -66
-101 -67 -103 -1 -1 -53 27 -114 64 -62 36 -114 65 -116 63 -5 -5 -75 -130
-75 -134 0 -2 48 -29 108 -60 59 -31 111 -60 115 -65 5 -4 -10 -44 -33 -89
-44 -89 -44 -89 -115 -53 -24 12 -57 14 -190 8 l-160 -7 -620 241 c-341 132
-682 265 -757 295 -135 53 -137 53 -205 44 -37 -4 -71 -8 -75 -9 -16 0 -7 -17
29 -60 l37 -43 -64 7 c-124 13 -590 20 -590 9 0 -11 287 -203 454 -304 l89
-54 -54 -15 c-30 -9 -55 -22 -57 -31 -1 -8 21 -37 50 -65 l53 -51 271 -67
c354 -87 341 -83 347 -105 3 -12 18 -21 41 -25 21 -4 36 -13 36 -21 0 -17 -24
-10 450 -120 206 -48 378 -90 382 -94 7 -6 -25 -177 -35 -187 -3 -3 -29 -1
-57 5 -28 6 -55 9 -60 6 -4 -3 -11 -31 -15 -62 -3 -32 -9 -67 -11 -78 l-5 -21
-172 19 c-109 12 -177 16 -187 10 -8 -5 -42 -6 -75 -3 l-60 6 -68 -66 c-61
-59 -71 -65 -110 -65 l-42 0 -3 -42 c-3 -43 -3 -43 32 -43 40 0 43 -3 111 -93
l50 -67 176 0 c97 0 210 -3 252 -6 l77 -7 1 -141 c0 -78 4 -163 7 -191 7 -47
9 -50 37 -50 29 0 30 -2 33 -47 3 -44 5 -48 30 -49 26 0 26 -1 5 -9 -13 -5
-23 -17 -23 -27 0 -21 28 -185 33 -189 1 -2 22 1 45 7 49 11 62 6 62 -22 0
-11 4 -29 10 -39 8 -16 15 -17 42 -9 52 14 56 12 64 -36 3 -25 10 -48 15 -50
4 -3 52 6 105 19 100 25 114 25 114 0 0 -19 10 -18 118 11 100 27 122 30 107
17 -6 -5 -47 -19 -92 -32 -81 -22 -83 -23 -80 -53 2 -33 12 -28 -136 -72 -76
-23 -88 -29 -85 -47 3 -17 -8 -23 -67 -42 -41 -13 -71 -28 -73 -37 -1 -8 7
-41 18 -73 11 -33 19 -60 18 -62 -2 -1 -66 -25 -143 -54 -76 -28 -141 -52
-142 -54 -2 -2 1 -15 6 -30 l10 -26 53 21 c201 80 232 90 246 72 6 -9 12 -23
12 -30 0 -20 19 -16 125 27 96 39 114 40 115 8 0 -5 27 -66 61 -137 l61 -129
-46 -88 c-29 -55 -42 -90 -35 -94 5 -4 40 -8 77 -9 37 -1 67 -3 69 -4 1 -1
-217 -139 -483 -307 -267 -167 -488 -308 -491 -313 -3 -4 2 -16 10 -25 8 -9
20 -28 27 -41 11 -21 10 -26 -10 -41 -22 -16 -22 -18 -6 -43 l17 -25 -86 -59
c-48 -32 -94 -63 -102 -69 -14 -10 -9 -22 43 -95 79 -112 231 -302 339 -422
l88 -98 36 33 c20 18 66 62 103 97 64 62 68 64 82 46 13 -18 32 -1 292 253
l279 271 14 -45 15 -45 -75 -77 c-41 -42 -159 -164 -262 -269 -103 -106 -187
-197 -187 -202 0 -9 115 -115 238 -221 35 -30 61 -59 58 -67 -3 -7 -57 -77
-121 -156 -63 -80 -115 -147 -115 -150 0 -3 40 -35 90 -72 55 -41 87 -71 83
-78 -4 -7 -17 -26 -30 -43 l-23 -30 174 -115 c95 -63 180 -118 189 -124 13 -8
-5 -43 -108 -215 l-122 -205 51 -29 c28 -16 105 -59 172 -95 l120 -66 -183
-374 c-101 -206 -182 -375 -181 -376 11 -6 221 -102 298 -135 121 -54 337
-138 463 -180 84 -28 97 -36 97 -55 0 -13 7 -25 15 -29 12 -4 13 -11 5 -31
-15 -38 -12 -49 12 -60 18 -8 25 -25 38 -95 11 -65 19 -86 33 -88 21 -4 21
-15 2 -78 -8 -27 -15 -50 -15 -51 0 -2 6 -3 14 -3 9 0 -4 -60 -50 -222 -66
-234 -70 -248 -55 -232 5 5 32 92 61 194 69 248 70 250 84 250 8 0 21 26 30
59 15 52 19 58 40 54 19 -4 35 8 82 61 51 58 62 66 85 61 24 -6 27 -3 33 29 5
26 12 36 25 36 14 0 22 12 31 50 11 45 15 50 38 48 24 -3 26 1 45 85 19 83 22
88 44 83 75 -19 68 -23 82 46 38 191 41 200 65 194 22 -5 24 1 71 222 87 416
75 374 105 368 14 -2 32 -6 40 -8 11 -2 49 181 170 802 l156 805 28 -2 c16 -1
30 -4 32 -6 2 -2 -5 -55 -16 -118 -11 -63 -20 -115 -20 -116 0 -2 12 -3 28 -3
58 0 58 -1 29 -207 -15 -103 -27 -195 -27 -205 0 -13 15 -18 76 -23 l75 -7 -5
-37 c-3 -20 -29 -265 -57 -546 -37 -356 -56 -513 -65 -521 -8 -6 -15 -26 -16
-45 -3 -30 0 -34 23 -37 19 -2 61 -40 147 -130 66 -70 163 -165 215 -212 93
-82 96 -86 96 -129 l1 -44 268 7 c147 3 304 10 349 15 76 9 84 12 118 48 33
35 37 37 48 20 7 -10 55 -84 109 -164 75 -113 98 -156 102 -192 13 -89 17
-101 36 -101 15 0 20 -14 30 -87 7 -49 14 -95 15 -103 1 -9 10 -14 22 -12 18
2 22 -6 32 -75 20 -123 18 -120 52 -115 34 5 33 2 14 112 -8 47 -15 86 -15 88
0 1 7 2 15 2 18 0 18 -3 0 93 -19 97 -19 127 -2 127 12 0 12 12 0 73 -13 72
-13 75 21 198 18 68 44 169 56 224 24 104 30 115 68 115 24 0 26 10 13 57 -6
20 -5 35 2 42 7 7 5 34 -8 92 -14 66 -15 83 -4 90 10 6 8 29 -13 116 -21 87
-23 110 -13 118 11 9 -14 124 -126 580 -76 314 -141 580 -144 592 -5 23 -2 25
95 48 25 6 54 -24 186 -191 8 -9 21 -12 42 -8 34 7 33 5 48 204 l6 85 129 50
c71 27 129 54 129 60 0 5 -9 30 -20 54 -11 24 -19 45 -18 46 7 6 70 36 93 45
23 9 27 6 49 -38 23 -45 30 -50 121 -90 91 -40 98 -41 125 -27 16 8 33 15 37
15 5 0 62 -97 128 -216 75 -135 128 -219 140 -224 11 -4 31 -31 45 -59 20 -43
28 -51 44 -47 18 4 28 -8 64 -72 23 -42 46 -83 51 -90 9 -15 83 26 278 154 83
54 111 77 107 89 -3 8 -2 15 2 15 5 0 15 4 22 9 11 6 1 26 -42 86 -44 61 -53
81 -45 91 6 8 17 14 23 14 6 -1 108 -133 225 -295 174 -238 218 -292 229 -283
9 8 16 8 20 2 39 -58 77 -104 87 -104 6 0 17 6 24 13 13 12 26 1 66 -57 13
-18 16 -17 58 18 24 20 47 36 51 36 4 0 18 -13 32 -29 l25 -30 46 45 c26 24
52 44 59 44 7 0 54 -50 104 -110 50 -61 95 -110 99 -110 4 0 16 50 26 111 12
71 25 119 37 135 l19 24 -52 60 c-51 58 -52 61 -34 80 14 15 15 23 6 34 -9 10
-9 16 -1 21 6 4 9 14 6 22 -4 9 -1 22 5 30 10 11 5 21 -24 51 -40 41 -46 59
-22 68 25 10 17 27 -30 74 -41 40 -43 45 -29 61 13 15 -10 42 -281 319 -163
166 -295 305 -293 310 2 5 48 55 103 112 148 152 406 468 404 494 0 5 -54 47
-120 93 -75 53 -118 90 -115 98 3 7 29 48 58 90 48 72 98 164 98 183 0 4 -60
44 -132 88 -1672 1012 -2255 1365 -2263 1373 -5 6 -5 13 1 19 7 7 245 -119
760 -403 503 -278 753 -411 761 -405 7 6 41 -8 100 -40 l88 -50 19 37 c10 20
25 46 33 59 l14 23 46 -25 c25 -15 47 -26 49 -26 2 0 11 14 19 31 18 35 14 59
-11 59 -12 0 -15 6 -11 21 4 15 -1 23 -20 30 -18 7 -23 14 -18 27 3 9 7 21 8
25 1 4 -38 25 -88 47 -49 21 -91 44 -93 50 -5 15 16 9 120 -36 75 -32 77 -32
83 -13 4 11 12 18 19 16 6 -3 57 -23 111 -45 55 -23 106 -42 113 -44 7 -2 23
22 37 57 14 33 25 61 25 62 0 1 -16 7 -35 13 -22 7 -35 18 -35 29 0 14 -31 29
-132 66 -259 94 -239 84 -228 105 12 22 -21 31 350 -95 157 -54 291 -98 298
-99 18 -1 82 202 127 404 31 138 78 410 72 416 -1 1 -67 10 -147 18 -211 24
-200 20 -200 66 0 21 3 41 7 43 5 2 73 -2 153 -9 1378 -123 1672 -146 1681
-133 4 8 36 97 69 199 33 102 65 193 70 202 6 10 10 38 10 63 l0 45 75 0 75 0
0 46 c0 27 4 43 10 39 6 -4 10 12 10 39 0 45 1 46 31 46 l31 0 -4 80 c-3 93
-9 88 101 92 l63 3 30 74 c16 40 27 75 25 77 -1 2 -43 -1 -92 -6 -49 -5 -91
-7 -94 -5 -2 3 -10 58 -17 122 -19 165 -18 163 -57 163 l-34 0 -14 93 c-12 82
-16 92 -36 95 -18 3 -23 12 -29 48 -3 25 -12 48 -19 50 -6 3 -45 -2 -85 -10
-77 -16 -89 -13 -90 23 0 14 -81 353 -85 359 -1 1 -67 -15 -146 -37 -141 -39
-674 -188 -774 -216 -27 -8 -277 -78 -555 -155 -278 -77 -512 -143 -521 -146
-11 -3 -18 3 -22 16 -3 13 -11 18 -20 14 -11 -4 -19 8 -31 42 -9 26 -13 50
-10 53 3 3 74 29 157 57 123 41 153 54 155 71 2 15 23 26 93 48 71 23 88 32
83 44 -3 9 -15 42 -26 74 -11 32 -26 61 -33 63 -7 3 -58 -13 -115 -36 -56 -22
-107 -39 -113 -37 -5 1 -22 34 -38 72 -17 44 -32 69 -41 67 -7 -2 -76 -31
-152 -65 -111 -49 -140 -58 -144 -47 -8 24 -141 284 -155 304 -12 17 -19 15
-101 -34 -78 -46 -90 -50 -103 -37 -13 13 29 40 349 232 199 120 369 223 376
228 9 7 10 13 2 21 -17 17 -12 25 48 63 31 20 58 37 60 38 4 4 -111 187 -183
291 l-63 91 20 21 20 20 -23 31 c-27 37 -26 39 75 116 36 28 65 52 65 55 0 3
-6 14 -14 24 -11 15 -17 16 -28 8 -11 -9 -28 4 -81 63 -57 63 -66 78 -56 90
18 22 -16 61 -37 43 -12 -9 -35 9 -126 98 -62 60 -126 122 -144 138 l-31 28
-39 -43 c-21 -24 -56 -63 -79 -88 l-40 -43 -71 61 c-39 34 -122 99 -184 146
l-113 85 -34 -48 c-18 -26 -37 -53 -41 -61 -7 -11 -13 -10 -36 5 -23 15 -28
16 -35 3 -5 -8 -41 -60 -80 -117 -80 -115 -63 -109 -146 -56 -15 11 -23 23
-19 32 3 8 129 212 281 453 l275 438 39 -24 c22 -14 43 -25 47 -25 11 0 83
112 77 121 -2 4 -46 33 -96 64 -51 32 -94 59 -96 60 -2 2 4 15 14 30 17 26 17
28 -2 42 -38 28 -255 145 -371 199 -65 31 -119 57 -121 59 -2 2 10 35 27 73
17 39 31 72 31 75 0 3 -9 7 -20 10 -16 4 -19 11 -15 30 8 32 -27 44 -47 17
-12 -17 -18 -16 -113 22 -55 23 -156 60 -225 84 -115 39 -125 44 -122 66 2 21
-5 25 -76 46 -98 28 -98 28 -106 -4 -6 -21 -11 -25 -29 -20 -75 22 -71 25 -93
-61 l-21 -78 -38 2 c-21 2 -44 8 -53 15 -16 14 -130 40 -142 33 -4 -2 -69 7
-146 20 -76 14 -141 25 -145 25 -4 0 -10 -12 -13 -26 -8 -29 -6 -29 -178 -7
-42 5 -48 3 -49 -13 0 -11 -4 -45 -8 -76 -8 -65 -5 -68 65 -68 36 0 44 -3 44
-19 0 -21 -307 -2536 -316 -2589 l-5 -34 -62 4 -62 3 -3 -30 c-1 -16 -6 -82
-10 -145 l-7 -115 -27 -3 c-21 -3 -28 -9 -28 -25 0 -46 -30 -964 -33 -1007 -2
-25 -4 1126 -5 2558 -1 1431 -5 2601 -9 2600 -5 -1 -98 -4 -208 -8z m575
-3866 c179 -30 457 -121 468 -153 5 -16 16 -19 -163 43 -141 49 -318 91 -430
101 -93 8 -115 13 -115 27 0 13 96 6 240 -18z m631 -217 c136 -74 136 -74 124
-86 -8 -8 -41 5 -110 44 -55 30 -108 58 -117 61 -20 6 -25 34 -5 34 6 0 55
-24 108 -53z m-689 -73 c156 -26 394 -103 405 -130 12 -31 -11 -30 -98 3 -147
55 -293 86 -501 108 -50 6 -58 9 -58 27 0 20 4 21 83 14 45 -4 121 -13 169
-22z m565 -200 c91 -49 96 -54 83 -74 -8 -13 -14 -12 -42 4 -18 10 -63 34
-100 53 -63 32 -79 49 -61 67 9 9 22 3 120 -50z m-5007 -1314 c0 -13 -7 -20
-18 -20 -24 0 -32 8 -25 26 8 22 43 17 43 -6z m4193 -233 c14 13 18 -28 7 -62
-12 -37 -35 -55 -69 -55 -25 0 -26 2 -4 43 9 18 16 40 14 51 -3 22 19 39 35
26 6 -6 14 -7 17 -3z m-1828 -6316 c3 -6 0 -30 -6 -55 -8 -34 -16 -46 -30 -46
-23 0 -22 -5 -4 58 15 50 27 63 40 43z"/>
</g>
</svg>
